<svg version="1.1" class="shape-reference" xmlns="http://www.w3.org/2000/svg" width="975" height="1376">
  <defs>
    <filter id="blur-8">
      <feGaussianBlur in="SourceGraphic" stdDeviation="8" />
    </filter>
    <filter id="blur-6">
      <feGaussianBlur in="SourceGraphic" stdDeviation="6" />
    </filter>
    <filter id="blur-4">
      <feGaussianBlur in="SourceGraphic" stdDeviation="4" />
    </filter>
  </defs>

  <g id="color-block">
    <polygon fill-rule="evenodd" clip-rule="evenodd" fill="#5c7dae" stroke="#5c7dae" stroke-width="0.6" points="40,562 114,568 128,754"/>
    <polygon fill-rule="evenodd" clip-rule="evenodd" fill="#7a9ac0" stroke="#7a9ac0" stroke-width="0.6" points="40,562 98,395 114,568"/>
    <polygon fill-rule="evenodd" clip-rule="evenodd" fill="#949ec4" stroke="#949ec4" stroke-width="0.6" points="114,568 98,395 154,405"/>
    <polygon fill-rule="evenodd" clip-rule="evenodd" fill="#9d94c0" stroke="#9d94c0" stroke-width="0.6" points="114,568 154,405 222,431"/>
    <polygon fill-rule="evenodd" clip-rule="evenodd" fill="#a388bb" stroke="#a388bb" stroke-width="0.6" points="114,568 222,431 254,469"/>
    <polygon fill-rule="evenodd" clip-rule="evenodd" fill="#927db4" stroke="#927db4" stroke-width="0.6" points="254,469 173,606 114,568"/>
    <polygon fill-rule="evenodd" clip-rule="evenodd" fill="#9c71ae" stroke="#9c71ae" stroke-width="0.6" points="254,469 218,606 173,606"/>
    <polygon fill-rule="evenodd" clip-rule="evenodd" fill="#a56cad" stroke="#a56cad" stroke-width="0.6" points="250,603 218,606 254,469"/>
    <polygon fill-rule="evenodd" clip-rule="evenodd" fill="#91509d" stroke="#91509d" stroke-width="0.6" points="237,768 218,606 250,603"/>
    <polygon fill-rule="evenodd" clip-rule="evenodd" fill="#7e4c95" stroke="#7e4c95" stroke-width="0.6" points="185,756 218,606 237,768"/>
    <polygon fill-rule="evenodd" clip-rule="evenodd" fill="#7f5da1" stroke="#7f5da1" stroke-width="0.6" points="185,756 173,606 218,606"/>
    <polygon fill-rule="evenodd" clip-rule="evenodd" fill="#695b9c" stroke="#695b9c" stroke-width="0.6" points="128,754 173,606 185,756"/>
    <polygon fill-rule="evenodd" clip-rule="evenodd" fill="#6a6ea8" stroke="#6a6ea8" stroke-width="0.6" points="128,754 114,568 173,606"/>
    <polygon fill-rule="evenodd" clip-rule="evenodd" fill="#554b81" stroke="#554b81" stroke-width="0.6" points="166,935 128,754 185,756"/>
    <polygon fill-rule="evenodd" clip-rule="evenodd" fill="#424974" stroke="#424974" stroke-width="0.6" points="103,938 128,754 166,935"/>
    <polygon fill-rule="evenodd" clip-rule="evenodd" fill="#363154" stroke="#363154" stroke-width="0.6" points="103,938 166,935 195,1124"/>
    <polygon fill-rule="evenodd" clip-rule="evenodd" fill="#3e2d52" stroke="#3e2d52" stroke-width="0.6" points="195,1124 166,935 200,936"/>
    <polygon fill-rule="evenodd" clip-rule="evenodd" fill="#362242" stroke="#362242" stroke-width="0.6" points="195,1124 200,936 218,1123"/>
    <polygon fill-rule="evenodd" clip-rule="evenodd" fill="#1d1122" stroke="#1d1122" stroke-width="0.6" points="195,1124 218,1123 230,1336"/>
    <polygon fill-rule="evenodd" clip-rule="evenodd" fill="#1e0e20" stroke="#1e0e20" stroke-width="0.6" points="230,1336 218,1123 282,1145"/>
    <polygon fill-rule="evenodd" clip-rule="evenodd" fill="#3d1b3d" stroke="#3d1b3d" stroke-width="0.6" points="218,1123 267,948 282,1145"/>
    <polygon fill-rule="evenodd" clip-rule="evenodd" fill="#47264f" stroke="#47264f" stroke-width="0.6" points="218,1123 200,936 267,948"/>
    <polygon fill-rule="evenodd" clip-rule="evenodd" fill="#61336a" stroke="#61336a" stroke-width="0.6" points="237,768 267,948 200,936"/>
    <polygon fill-rule="evenodd" clip-rule="evenodd" fill="#6d2c68" stroke="#6d2c68" stroke-width="0.6" points="302,934 267,948 237,768"/>
    <polygon fill-rule="evenodd" clip-rule="evenodd" fill="#521d4b" stroke="#521d4b" stroke-width="0.6" points="282,1145 267,948 302,934"/>
    <polygon fill-rule="evenodd" clip-rule="evenodd" fill="#66407c" stroke="#66407c" stroke-width="0.6" points="237,768 200,936 185,756"/>
    <polygon fill-rule="evenodd" clip-rule="evenodd" fill="#533e70" stroke="#533e70" stroke-width="0.6" points="200,936 166,935 185,756"/>
    <polygon fill-rule="evenodd" clip-rule="evenodd" fill="#a0499b" stroke="#a0499b" stroke-width="0.6" points="237,768 250,603 312,595"/>
    <polygon fill-rule="evenodd" clip-rule="evenodd" fill="#b45ea7" stroke="#b45ea7" stroke-width="0.6" points="250,603 298,507 312,595"/>
    <polygon fill-rule="evenodd" clip-rule="evenodd" fill="#b470b0" stroke="#b470b0" stroke-width="0.6" points="250,603 254,469 298,507"/>
    <polygon fill-rule="evenodd" clip-rule="evenodd" fill="#c581ba" stroke="#c581ba" stroke-width="0.6" points="298,507 254,469 309,388"/>
    <polygon fill-rule="evenodd" clip-rule="evenodd" fill="#c18dc0" stroke="#c18dc0" stroke-width="0.6" points="254,469 222,431 309,388"/>
    <polygon fill-rule="evenodd" clip-rule="evenodd" fill="#cb95c5" stroke="#cb95c5" stroke-width="0.6" points="222,431 302,356 309,388"/>
    <polygon fill-rule="evenodd" clip-rule="evenodd" fill="#c99fca" stroke="#c99fca" stroke-width="0.6" points="222,431 243,320 302,356"/>
    <polygon fill-rule="evenodd" clip-rule="evenodd" fill="#bba2ca" stroke="#bba2ca" stroke-width="0.6" points="222,431 154,405 243,320"/>
    <polygon fill-rule="evenodd" clip-rule="evenodd" fill="#c5b0d2" stroke="#c5b0d2" stroke-width="0.6" points="243,320 154,405 221,280"/>
    <polygon fill-rule="evenodd" clip-rule="evenodd" fill="#deb1d5" stroke="#deb1d5" stroke-width="0.6" points="243,320 221,280 426,275"/>
    <polygon fill-rule="evenodd" clip-rule="evenodd" fill="#dfa6cf" stroke="#dfa6cf" stroke-width="0.6" points="302,356 243,320 426,275"/>
    <polygon fill-rule="evenodd" clip-rule="evenodd" fill="#e19cca" stroke="#e19cca" stroke-width="0.6" points="309,388 302,356 426,275"/>
    <polygon fill-rule="evenodd" clip-rule="evenodd" fill="#ebbadb" stroke="#ebbadb" stroke-width="0.6" points="221,280 405,180 426,275"/>
    <polygon fill-rule="evenodd" clip-rule="evenodd" fill="#eec9e2" stroke="#eec9e2" stroke-width="0.6" points="221,280 393,160 405,180"/>
    <polygon fill-rule="evenodd" clip-rule="evenodd" fill="#fed0e8" stroke="#fed0e8" stroke-width="0.6" points="405,180 393,160 612,138"/>
    <polygon fill-rule="evenodd" clip-rule="evenodd" fill="#ffc2e0" stroke="#ffc2e0" stroke-width="0.6" points="612,138 430,266 405,180"/>
    <polygon fill-rule="evenodd" clip-rule="evenodd" fill="#f7c3e0" stroke="#f7c3e0" stroke-width="0.6" points="612,138 630,209 430,266"/>
    <polygon fill-rule="evenodd" clip-rule="evenodd" fill="#f5dbec" stroke="#f5dbec" stroke-width="0.6" points="612,138 626,86 630,209"/>
    <polygon fill-rule="evenodd" clip-rule="evenodd" fill="#fbeef6" stroke="#fbeef6" stroke-width="0.6" points="612,138 618,40 626,86"/>
    <polygon fill-rule="evenodd" clip-rule="evenodd" fill="#fde4f2" stroke="#fde4f2" stroke-width="0.6" points="612,138 393,160 618,40"/>
    <polygon fill-rule="evenodd" clip-rule="evenodd" fill="#f8f3f9" stroke="#f8f3f9" stroke-width="0.6" points="935,108 626,86 618,40"/>
    <polygon fill-rule="evenodd" clip-rule="evenodd" fill="#eee3f0" stroke="#eee3f0" stroke-width="0.6" points="630,209 626,86 935,108"/>
    <polygon fill-rule="evenodd" clip-rule="evenodd" fill="#e5d3e7" stroke="#e5d3e7" stroke-width="0.6" points="628,260 630,209 935,108"/>
    <polygon fill-rule="evenodd" clip-rule="evenodd" fill="#f4b5d9" stroke="#f4b5d9" stroke-width="0.6" points="628,260 430,266 630,209"/>
    <polygon fill-rule="evenodd" clip-rule="evenodd" fill="#fea6d3" stroke="#fea6d3" stroke-width="0.6" points="426,275 430,266 628,260"/>
    <polygon fill-rule="evenodd" clip-rule="evenodd" fill="#f6b5d9" stroke="#f6b5d9" stroke-width="0.6" points="426,275 405,180 430,266"/>
    <polygon fill-rule="evenodd" clip-rule="evenodd" fill="#b5b0d0" stroke="#b5b0d0" stroke-width="0.6" points="154,405 98,395 221,280"/>
  </g>

</svg>