<svg version="1.1" class="shape-reference" xmlns="http://www.w3.org/2000/svg" width="799" height="1313">
  <defs>
    <filter id="blur-8">
      <feGaussianBlur in="SourceGraphic" stdDeviation="8" />
    </filter>
    <filter id="blur-6">
      <feGaussianBlur in="SourceGraphic" stdDeviation="6" />
    </filter>
    <filter id="blur-4">
      <feGaussianBlur in="SourceGraphic" stdDeviation="4" />
    </filter>
  </defs>

  <g id="color-block">
    <polygon fill-rule="evenodd" clip-rule="evenodd" fill="#86a5c7" stroke="#86a5c7" stroke-width="0.6" points="40,401 82,404 91,517"/>
    <polygon fill-rule="evenodd" clip-rule="evenodd" fill="#9db3d0" stroke="#9db3d0" stroke-width="0.6" points="82,404 40,401 114,307"/>
    <polygon fill-rule="evenodd" clip-rule="evenodd" fill="#a7adce" stroke="#a7adce" stroke-width="0.6" points="139,400 82,404 114,307"/>
    <polygon fill-rule="evenodd" clip-rule="evenodd" fill="#989cc4" stroke="#989cc4" stroke-width="0.6" points="129,506 82,404 139,400"/>
    <polygon fill-rule="evenodd" clip-rule="evenodd" fill="#8897c0" stroke="#8897c0" stroke-width="0.6" points="91,517 82,404 129,506"/>
    <polygon fill-rule="evenodd" clip-rule="evenodd" fill="#7d80b3" stroke="#7d80b3" stroke-width="0.6" points="91,517 129,506 137,609"/>
    <polygon fill-rule="evenodd" clip-rule="evenodd" fill="#8772ad" stroke="#8772ad" stroke-width="0.6" points="137,609 129,506 186,581"/>
    <polygon fill-rule="evenodd" clip-rule="evenodd" fill="#8658a0" stroke="#8658a0" stroke-width="0.6" points="137,609 186,581 204,702"/>
    <polygon fill-rule="evenodd" clip-rule="evenodd" fill="#954397" stroke="#954397" stroke-width="0.6" points="243,689 204,702 186,581"/>
    <polygon fill-rule="evenodd" clip-rule="evenodd" fill="#8b3582" stroke="#8b3582" stroke-width="0.6" points="242,811 204,702 243,689"/>
    <polygon fill-rule="evenodd" clip-rule="evenodd" fill="#902978" stroke="#902978" stroke-width="0.6" points="242,811 243,689 290,792"/>
    <polygon fill-rule="evenodd" clip-rule="evenodd" fill="#841e64" stroke="#841e64" stroke-width="0.6" points="242,811 290,792 305,900"/>
    <polygon fill-rule="evenodd" clip-rule="evenodd" fill="#8b135c" stroke="#8b135c" stroke-width="0.6" points="305,900 290,792 353,889"/>
    <polygon fill-rule="evenodd" clip-rule="evenodd" fill="#780c49" stroke="#780c49" stroke-width="0.6" points="305,900 353,889 360,1021"/>
    <polygon fill-rule="evenodd" clip-rule="evenodd" fill="#74053f" stroke="#74053f" stroke-width="0.6" points="360,1021 353,889 398,1005"/>
    <polygon fill-rule="evenodd" clip-rule="evenodd" fill="#5a012e" stroke="#5a012e" stroke-width="0.6" points="360,1021 398,1005 407,1131"/>
    <polygon fill-rule="evenodd" clip-rule="evenodd" fill="#490227" stroke="#490227" stroke-width="0.6" points="407,1131 398,1005 454,1129"/>
    <polygon fill-rule="evenodd" clip-rule="evenodd" fill="#250114" stroke="#250114" stroke-width="0.6" points="429,1273 407,1131 454,1129"/>
    <polygon fill-rule="evenodd" clip-rule="evenodd" fill="#580431" stroke="#580431" stroke-width="0.6" points="398,1005 454,996 454,1129"/>
    <polygon fill-rule="evenodd" clip-rule="evenodd" fill="#7d0342" stroke="#7d0342" stroke-width="0.6" points="398,1005 402,871 454,996"/>
    <polygon fill-rule="evenodd" clip-rule="evenodd" fill="#8c0349" stroke="#8c0349" stroke-width="0.6" points="398,1005 353,889 402,871"/>
    <polygon fill-rule="evenodd" clip-rule="evenodd" fill="#a3095c" stroke="#a3095c" stroke-width="0.6" points="353,889 328,768 402,871"/>
    <polygon fill-rule="evenodd" clip-rule="evenodd" fill="#9d1465" stroke="#9d1465" stroke-width="0.6" points="290,792 328,768 353,889"/>
    <polygon fill-rule="evenodd" clip-rule="evenodd" fill="#a32278" stroke="#a32278" stroke-width="0.6" points="290,792 243,689 328,768"/>
    <polygon fill-rule="evenodd" clip-rule="evenodd" fill="#b12381" stroke="#b12381" stroke-width="0.6" points="243,689 293,661 328,768"/>
    <polygon fill-rule="evenodd" clip-rule="evenodd" fill="#b03894" stroke="#b03894" stroke-width="0.6" points="243,689 232,580 293,661"/>
    <polygon fill-rule="evenodd" clip-rule="evenodd" fill="#a04c9c" stroke="#a04c9c" stroke-width="0.6" points="243,689 186,581 232,580"/>
    <polygon fill-rule="evenodd" clip-rule="evenodd" fill="#a268ab" stroke="#a268ab" stroke-width="0.6" points="186,581 179,484 232,580"/>
    <polygon fill-rule="evenodd" clip-rule="evenodd" fill="#9779b2" stroke="#9779b2" stroke-width="0.6" points="129,506 179,484 186,581"/>
    <polygon fill-rule="evenodd" clip-rule="evenodd" fill="#9e8dbd" stroke="#9e8dbd" stroke-width="0.6" points="129,506 139,400 179,484"/>
    <polygon fill-rule="evenodd" clip-rule="evenodd" fill="#ac93c1" stroke="#ac93c1" stroke-width="0.6" points="179,484 139,400 184,392"/>
    <polygon fill-rule="evenodd" clip-rule="evenodd" fill="#b385ba" stroke="#b385ba" stroke-width="0.6" points="179,484 184,392 233,476"/>
    <polygon fill-rule="evenodd" clip-rule="evenodd" fill="#af6eaf" stroke="#af6eaf" stroke-width="0.6" points="232,580 179,484 233,476"/>
    <polygon fill-rule="evenodd" clip-rule="evenodd" fill="#b95ba6" stroke="#b95ba6" stroke-width="0.6" points="232,580 233,476 277,561"/>
    <polygon fill-rule="evenodd" clip-rule="evenodd" fill="#bb419a" stroke="#bb419a" stroke-width="0.6" points="232,580 277,561 293,661"/>
    <polygon fill-rule="evenodd" clip-rule="evenodd" fill="#cc2e91" stroke="#cc2e91" stroke-width="0.6" points="293,661 277,561 342,638"/>
    <polygon fill-rule="evenodd" clip-rule="evenodd" fill="#d21480" stroke="#d21480" stroke-width="0.6" points="293,661 342,638 381,752"/>
    <polygon fill-rule="evenodd" clip-rule="evenodd" fill="#c11578" stroke="#c11578" stroke-width="0.6" points="328,768 293,661 381,752"/>
    <polygon fill-rule="evenodd" clip-rule="evenodd" fill="#b70864" stroke="#b70864" stroke-width="0.6" points="328,768 381,752 402,871"/>
    <polygon fill-rule="evenodd" clip-rule="evenodd" fill="#b3025c" stroke="#b3025c" stroke-width="0.6" points="402,871 381,752 444,862"/>
    <polygon fill-rule="evenodd" clip-rule="evenodd" fill="#8b074d" stroke="#8b074d" stroke-width="0.6" points="402,871 444,862 454,996"/>
    <polygon fill-rule="evenodd" clip-rule="evenodd" fill="#c40467" stroke="#c40467" stroke-width="0.6" points="381,752 425,727 444,862"/>
    <polygon fill-rule="evenodd" clip-rule="evenodd" fill="#ea0075" stroke="#ea0075" stroke-width="0.6" points="381,752 389,636 425,727"/>
    <polygon fill-rule="evenodd" clip-rule="evenodd" fill="#e70a7e" stroke="#e70a7e" stroke-width="0.6" points="381,752 342,638 389,636"/>
    <polygon fill-rule="evenodd" clip-rule="evenodd" fill="#f0218e" stroke="#f0218e" stroke-width="0.6" points="389,636 342,638 379,530"/>
    <polygon fill-rule="evenodd" clip-rule="evenodd" fill="#e63497" stroke="#e63497" stroke-width="0.6" points="342,638 321,536 379,530"/>
    <polygon fill-rule="evenodd" clip-rule="evenodd" fill="#d53b98" stroke="#d53b98" stroke-width="0.6" points="277,561 321,536 342,638"/>
    <polygon fill-rule="evenodd" clip-rule="evenodd" fill="#ce56a6" stroke="#ce56a6" stroke-width="0.6" points="277,561 274,463 321,536"/>
    <polygon fill-rule="evenodd" clip-rule="evenodd" fill="#c566ad" stroke="#c566ad" stroke-width="0.6" points="233,476 274,463 277,561"/>
    <polygon fill-rule="evenodd" clip-rule="evenodd" fill="#c67cb8" stroke="#c67cb8" stroke-width="0.6" points="233,476 236,393 274,463"/>
    <polygon fill-rule="evenodd" clip-rule="evenodd" fill="#bf8abe" stroke="#bf8abe" stroke-width="0.6" points="233,476 184,392 236,393"/>
    <polygon fill-rule="evenodd" clip-rule="evenodd" fill="#c69cc8" stroke="#c69cc8" stroke-width="0.6" points="236,393 184,392 207,313"/>
    <polygon fill-rule="evenodd" clip-rule="evenodd" fill="#cf9dca" stroke="#cf9dca" stroke-width="0.6" points="251,338 236,393 207,313"/>
    <polygon fill-rule="evenodd" clip-rule="evenodd" fill="#d491c4" stroke="#d491c4" stroke-width="0.6" points="286,382 236,393 251,338"/>
    <polygon fill-rule="evenodd" clip-rule="evenodd" fill="#d182bc" stroke="#d182bc" stroke-width="0.6" points="274,463 236,393 286,382"/>
    <polygon fill-rule="evenodd" clip-rule="evenodd" fill="#d973b5" stroke="#d973b5" stroke-width="0.6" points="274,463 286,382 325,459"/>
    <polygon fill-rule="evenodd" clip-rule="evenodd" fill="#d85daa" stroke="#d85daa" stroke-width="0.6" points="321,536 274,463 325,459"/>
    <polygon fill-rule="evenodd" clip-rule="evenodd" fill="#e64ca3" stroke="#e64ca3" stroke-width="0.6" points="321,536 325,459 379,530"/>
    <polygon fill-rule="evenodd" clip-rule="evenodd" fill="#ec55a7" stroke="#ec55a7" stroke-width="0.6" points="325,459 360,440 379,530"/>
    <polygon fill-rule="evenodd" clip-rule="evenodd" fill="#e96bb3" stroke="#e96bb3" stroke-width="0.6" points="325,459 326,389 360,440"/>
    <polygon fill-rule="evenodd" clip-rule="evenodd" fill="#e177b8" stroke="#e177b8" stroke-width="0.6" points="325,459 286,382 326,389"/>
    <polygon fill-rule="evenodd" clip-rule="evenodd" fill="#e583be" stroke="#e583be" stroke-width="0.6" points="326,389 286,382 336,353"/>
    <polygon fill-rule="evenodd" clip-rule="evenodd" fill="#ef7dbc" stroke="#ef7dbc" stroke-width="0.6" points="326,389 336,353 384,381"/>
    <polygon fill-rule="evenodd" clip-rule="evenodd" fill="#f172b7" stroke="#f172b7" stroke-width="0.6" points="360,440 326,389 384,381"/>
    <polygon fill-rule="evenodd" clip-rule="evenodd" fill="#e48dc3" stroke="#e48dc3" stroke-width="0.6" points="336,353 286,382 298,337"/>
    <polygon fill-rule="evenodd" clip-rule="evenodd" fill="#e991c6" stroke="#e991c6" stroke-width="0.6" points="336,353 298,337 319,331"/>
    <polygon fill-rule="evenodd" clip-rule="evenodd" fill="#e998c9" stroke="#e998c9" stroke-width="0.6" points="319,331 298,337 326,302"/>
    <polygon fill-rule="evenodd" clip-rule="evenodd" fill="#e69ecc" stroke="#e69ecc" stroke-width="0.6" points="326,302 298,337 269,305"/>
    <polygon fill-rule="evenodd" clip-rule="evenodd" fill="#e7a6d0" stroke="#e7a6d0" stroke-width="0.6" points="269,305 291,263 326,302"/>
    <polygon fill-rule="evenodd" clip-rule="evenodd" fill="#e0aed3" stroke="#e0aed3" stroke-width="0.6" points="269,305 228,273 291,263"/>
    <polygon fill-rule="evenodd" clip-rule="evenodd" fill="#d8aed2" stroke="#d8aed2" stroke-width="0.6" points="207,313 228,273 269,305"/>
    <polygon fill-rule="evenodd" clip-rule="evenodd" fill="#d6b6d6" stroke="#d6b6d6" stroke-width="0.6" points="228,273 207,313 199,248"/>
    <polygon fill-rule="evenodd" clip-rule="evenodd" fill="#e0bddb" stroke="#e0bddb" stroke-width="0.6" points="228,273 199,248 272,215"/>
    <polygon fill-rule="evenodd" clip-rule="evenodd" fill="#e5b8d9" stroke="#e5b8d9" stroke-width="0.6" points="291,263 228,273 272,215"/>
    <polygon fill-rule="evenodd" clip-rule="evenodd" fill="#efbddc" stroke="#efbddc" stroke-width="0.6" points="291,263 272,215 341,191"/>
    <polygon fill-rule="evenodd" clip-rule="evenodd" fill="#f4b7da" stroke="#f4b7da" stroke-width="0.6" points="291,263 341,191 368,240"/>
    <polygon fill-rule="evenodd" clip-rule="evenodd" fill="#f0a9d3" stroke="#f0a9d3" stroke-width="0.6" points="326,302 291,263 368,240"/>
    <polygon fill-rule="evenodd" clip-rule="evenodd" fill="#fdbcdd" stroke="#fdbcdd" stroke-width="0.6" points="368,240 341,191 440,183"/>
    <polygon fill-rule="evenodd" clip-rule="evenodd" fill="#fec9e4" stroke="#fec9e4" stroke-width="0.6" points="440,183 341,191 443,137"/>
    <polygon fill-rule="evenodd" clip-rule="evenodd" fill="#f6d7ea" stroke="#f6d7ea" stroke-width="0.6" points="440,183 443,137 587,128"/>
    <polygon fill-rule="evenodd" clip-rule="evenodd" fill="#f6e6f2" stroke="#f6e6f2" stroke-width="0.6" points="443,137 577,81 587,128"/>
    <polygon fill-rule="evenodd" clip-rule="evenodd" fill="#fae7f3" stroke="#fae7f3" stroke-width="0.6" points="443,137 423,95 577,81"/>
    <polygon fill-rule="evenodd" clip-rule="evenodd" fill="#ffdaec" stroke="#ffdaec" stroke-width="0.6" points="326,156 423,95 443,137"/>
    <polygon fill-rule="evenodd" clip-rule="evenodd" fill="#fce0ef" stroke="#fce0ef" stroke-width="0.6" points="326,156 312,108 423,95"/>
    <polygon fill-rule="evenodd" clip-rule="evenodd" fill="#f5d9eb" stroke="#f5d9eb" stroke-width="0.6" points="326,156 239,183 312,108"/>
    <polygon fill-rule="evenodd" clip-rule="evenodd" fill="#efcde4" stroke="#efcde4" stroke-width="0.6" points="272,215 239,183 326,156"/>
    <polygon fill-rule="evenodd" clip-rule="evenodd" fill="#e5c7e1" stroke="#e5c7e1" stroke-width="0.6" points="199,248 239,183 272,215"/>
    <polygon fill-rule="evenodd" clip-rule="evenodd" fill="#dfcbe2" stroke="#dfcbe2" stroke-width="0.6" points="199,248 157,216 239,183"/>
    <polygon fill-rule="evenodd" clip-rule="evenodd" fill="#d1c2dc" stroke="#d1c2dc" stroke-width="0.6" points="199,248 159,309 157,216"/>
    <polygon fill-rule="evenodd" clip-rule="evenodd" fill="#ceb5d6" stroke="#ceb5d6" stroke-width="0.6" points="207,313 159,309 199,248"/>
    <polygon fill-rule="evenodd" clip-rule="evenodd" fill="#c4a9cf" stroke="#c4a9cf" stroke-width="0.6" points="184,392 159,309 207,313"/>
    <polygon fill-rule="evenodd" clip-rule="evenodd" fill="#b7a5cb" stroke="#b7a5cb" stroke-width="0.6" points="139,400 159,309 184,392"/>
    <polygon fill-rule="evenodd" clip-rule="evenodd" fill="#b7b1d1" stroke="#b7b1d1" stroke-width="0.6" points="139,400 114,307 159,309"/>
    <polygon fill-rule="evenodd" clip-rule="evenodd" fill="#c7c0da" stroke="#c7c0da" stroke-width="0.6" points="159,309 114,307 157,216"/>
    <polygon fill-rule="evenodd" clip-rule="evenodd" fill="#c3c7dd" stroke="#c3c7dd" stroke-width="0.6" points="114,307 61,279 157,216"/>
    <polygon fill-rule="evenodd" clip-rule="evenodd" fill="#a8bed6" stroke="#a8bed6" stroke-width="0.6" points="40,401 61,279 114,307"/>
    <polygon fill-rule="evenodd" clip-rule="evenodd" fill="#ced1e3" stroke="#ced1e3" stroke-width="0.6" points="61,279 122,182 157,216"/>
    <polygon fill-rule="evenodd" clip-rule="evenodd" fill="#e1d9e9" stroke="#e1d9e9" stroke-width="0.6" points="157,216 122,182 216,137"/>
    <polygon fill-rule="evenodd" clip-rule="evenodd" fill="#e6d5e8" stroke="#e6d5e8" stroke-width="0.6" points="157,216 216,137 239,183"/>
    <polygon fill-rule="evenodd" clip-rule="evenodd" fill="#f2dded" stroke="#f2dded" stroke-width="0.6" points="239,183 216,137 312,108"/>
    <polygon fill-rule="evenodd" clip-rule="evenodd" fill="#f8eaf4" stroke="#f8eaf4" stroke-width="0.6" points="312,108 216,137 294,55"/>
    <polygon fill-rule="evenodd" clip-rule="evenodd" fill="#fef4f9" stroke="#fef4f9" stroke-width="0.6" points="312,108 294,55 412,41"/>
    <polygon fill-rule="evenodd" clip-rule="evenodd" fill="#ffeef7" stroke="#ffeef7" stroke-width="0.6" points="312,108 412,41 423,95"/>
    <polygon fill-rule="evenodd" clip-rule="evenodd" fill="#fef7fb" stroke="#fef7fb" stroke-width="0.6" points="423,95 412,41 569,40"/>
    <polygon fill-rule="evenodd" clip-rule="evenodd" fill="#fcf4f9" stroke="#fcf4f9" stroke-width="0.6" points="423,95 569,40 577,81"/>
    <polygon fill-rule="evenodd" clip-rule="evenodd" fill="#fbf9fc" stroke="#fbf9fc" stroke-width="0.6" points="577,81 569,40 759,61"/>
    <polygon fill-rule="evenodd" clip-rule="evenodd" fill="#f4f1f7" stroke="#f4f1f7" stroke-width="0.6" points="587,128 577,81 759,61"/>
    <polygon fill-rule="evenodd" clip-rule="evenodd" fill="#f7edf5" stroke="#f7edf5" stroke-width="0.6" points="216,137 189,96 294,55"/>
    <polygon fill-rule="evenodd" clip-rule="evenodd" fill="#ebe3ef" stroke="#ebe3ef" stroke-width="0.6" points="122,182 189,96 216,137"/>
    <polygon fill-rule="evenodd" clip-rule="evenodd" fill="#f3c9e3" stroke="#f3c9e3" stroke-width="0.6" points="272,215 326,156 341,191"/>
    <polygon fill-rule="evenodd" clip-rule="evenodd" fill="#fccfe7" stroke="#fccfe7" stroke-width="0.6" points="443,137 341,191 326,156"/>
    <polygon fill-rule="evenodd" clip-rule="evenodd" fill="#d6a4ce" stroke="#d6a4ce" stroke-width="0.6" points="251,338 207,313 269,305"/>
    <polygon fill-rule="evenodd" clip-rule="evenodd" fill="#dd9dcb" stroke="#dd9dcb" stroke-width="0.6" points="251,338 269,305 298,337"/>
    <polygon fill-rule="evenodd" clip-rule="evenodd" fill="#dc93c5" stroke="#dc93c5" stroke-width="0.6" points="286,382 251,338 298,337"/>
  </g>
</svg>